<?xml version="1.0" standalone="no"?>
<!DOCTYPE svg PUBLIC "-//W3C//DTD SVG 20010904//EN"
 "http://www.w3.org/TR/2001/REC-SVG-20010904/DTD/svg10.dtd">
<svg version="1.0" xmlns="http://www.w3.org/2000/svg"
 width="700.000000pt" height="700.000000pt" viewBox="0 0 700.000000 700.000000"
 preserveAspectRatio="xMidYMid meet">
<metadata>
Created by potrace 1.11, written by Peter Selinger 2001-2013
</metadata>
<g transform="translate(0.000000,700.000000) scale(0.100000,-0.100000)"
fill="#000000" stroke="none">
<path d="M4247 5945 c-1 -2 -32 -5 -68 -9 -224 -21 -462 -168 -594 -366 -96
-144 -138 -280 -139 -450 -1 -138 6 -193 37 -285 78 -228 241 -410 454 -506
318 -143 694 -76 939 167 166 164 252 370 252 599 0 111 -8 169 -39 265 -96
301 -374 536 -681 575 -50 7 -156 13 -161 10z m164 -385 c170 -45 306 -193
343 -373 47 -229 -99 -476 -322 -543 -257 -78 -526 64 -604 320 -27 88 -22
223 11 305 60 149 189 260 343 296 62 14 165 12 229 -5z"/>
<path d="M1979 4602 c-12 -2 -14 -197 -13 -1405 1 -771 4 -1424 8 -1452 12
-92 18 -119 38 -190 66 -229 201 -373 419 -446 156 -52 257 -63 589 -62 218 0
227 1 280 25 155 70 213 181 209 396 l-2 118 -337 1 c-367 1 -417 7 -479 59
-41 34 -79 116 -88 194 -5 36 -8 364 -8 730 l0 665 412 0 413 0 0 271 0 271
-402 1 c-222 0 -408 1 -413 1 -7 1 -11 133 -10 407 0 247 -4 408 -9 412 -10 5
-578 10 -607 4z"/>
</g>
</svg>
