<?xml version="1.0" standalone="no"?>
<!DOCTYPE svg PUBLIC "-//W3C//DTD SVG 20010904//EN"
 "http://www.w3.org/TR/2001/REC-SVG-20010904/DTD/svg10.dtd">
<svg version="1.0" xmlns="http://www.w3.org/2000/svg"
 width="672.000000pt" height="672.000000pt" viewBox="0 0 672.000000 672.000000"
 preserveAspectRatio="xMidYMid meet">
<metadata>
Created by potrace 1.11, written by Peter Selinger 2001-2013
</metadata>
<g transform="translate(0.000000,672.000000) scale(0.100000,-0.100000)"
fill="#000000" stroke="none">
<path d="M3905 6668 c-91 -18 -217 -61 -245 -82 -8 -7 -32 -21 -53 -31 -51
-26 -170 -136 -198 -183 -13 -20 -26 -39 -30 -42 -18 -14 -94 -218 -102 -276
-8 -56 19 -94 68 -99 17 -2 67 12 158 44 89 31 110 37 182 47 88 14 141 11
245 -12 76 -16 240 -148 240 -191 0 -7 4 -13 8 -13 9 0 58 -106 60 -130 0 -3
5 -17 11 -31 5 -15 12 -44 16 -66 3 -21 8 -50 11 -63 4 -20 5 -106 3 -190 -4
-126 -72 -350 -154 -508 -62 -121 -162 -283 -185 -302 -3 -3 -23 -30 -45 -60
-44 -62 -50 -68 -85 -108 -14 -16 -52 -59 -85 -97 -106 -120 -322 -332 -440
-430 -26 -22 -55 -47 -64 -56 -26 -26 -176 -147 -259 -210 -42 -32 -82 -63
-89 -68 -43 -37 -174 -131 -182 -131 -6 0 -11 -3 -11 -8 0 -4 -30 -27 -67 -52
-38 -25 -69 -48 -71 -52 -2 -5 -10 -8 -17 -8 -7 0 -15 -4 -17 -9 -1 -5 -57
-44 -123 -87 -66 -43 -121 -81 -123 -86 -2 -4 -8 -8 -13 -8 -12 0 -93 -52 -97
-62 -2 -5 -8 -8 -13 -8 -5 0 -62 -33 -127 -74 -64 -40 -133 -83 -152 -94 -19
-11 -105 -60 -190 -109 -318 -184 -592 -331 -895 -480 -211 -103 -199 -97
-203 -118 -3 -15 2 -16 40 -10 23 4 50 7 58 7 8 0 62 6 120 14 110 16 123 18
180 29 19 3 46 8 60 10 14 2 48 9 75 15 28 6 61 13 75 15 41 8 61 12 135 30
39 9 80 18 91 21 60 11 270 68 439 118 105 31 198 58 208 61 18 4 185 60 217
72 8 3 20 7 25 9 19 5 210 73 288 103 42 16 77 27 77 24 0 -3 6 -1 13 4 6 5
62 29 122 52 141 55 141 55 275 114 19 8 64 27 100 42 36 15 79 34 95 43 17 9
32 17 35 17 21 4 430 206 535 265 39 21 86 46 105 56 19 10 82 46 139 81 57
35 105 63 106 63 10 0 295 195 366 250 24 19 46 37 49 40 3 3 39 34 80 70 41
36 80 71 85 78 8 10 15 5 29 -25 83 -173 94 -397 31 -635 -26 -99 -27 -102
-40 -133 -5 -11 -17 -42 -27 -70 -24 -61 -109 -224 -149 -283 -16 -24 -29 -46
-29 -50 0 -4 -11 -20 -25 -36 -14 -16 -25 -32 -25 -35 0 -3 -10 -18 -23 -33
-12 -14 -29 -36 -37 -48 -8 -12 -19 -28 -25 -34 -5 -6 -28 -34 -50 -61 -85
-108 -293 -326 -441 -462 -59 -54 -156 -139 -239 -208 -27 -22 -62 -52 -79
-66 -32 -27 -200 -158 -252 -196 -136 -101 -200 -147 -269 -193 -44 -30 -81
-58 -83 -62 -2 -5 -10 -8 -17 -8 -7 0 -15 -3 -17 -7 -4 -11 -128 -93 -139 -93
-5 0 -9 -4 -9 -10 0 -5 -6 -10 -14 -10 -8 0 -16 -3 -18 -7 -4 -11 -86 -63 -98
-63 -5 0 -10 -4 -10 -9 0 -5 -9 -13 -20 -16 -11 -3 -26 -12 -32 -18 -7 -7 -47
-32 -88 -56 -41 -25 -76 -48 -78 -53 -2 -4 -7 -8 -12 -8 -5 0 -44 -22 -87 -48
-43 -26 -85 -51 -93 -55 -8 -4 -28 -15 -45 -26 -51 -31 -290 -168 -359 -205
-36 -20 -96 -53 -133 -73 -234 -128 -742 -383 -763 -383 -6 0 -10 -8 -8 -17 4
-23 29 -23 223 2 65 8 98 13 165 25 30 6 69 13 85 16 113 19 400 82 435 95 14
5 37 10 51 13 35 6 192 48 344 93 66 19 152 44 190 55 39 10 77 22 85 25 8 4
17 7 20 8 3 1 12 4 20 8 8 3 71 24 140 47 144 47 282 96 325 115 17 7 41 16
55 20 14 4 39 13 55 20 17 7 48 19 70 28 78 30 371 151 425 175 30 13 69 30
85 37 117 50 551 265 645 319 25 14 57 31 73 37 15 6 27 15 27 20 0 5 6 9 13
9 7 0 68 34 136 75 68 41 128 75 133 75 4 0 8 3 8 8 0 4 21 20 48 35 26 15 63
39 82 53 19 13 43 30 53 37 56 37 224 168 301 234 91 79 315 299 351 346 11
14 50 63 86 109 80 101 159 213 159 227 0 5 3 11 8 13 13 6 112 196 162 313
13 30 69 202 74 227 3 13 11 54 20 93 10 49 15 135 16 290 1 250 -13 350 -75
532 -35 100 -100 242 -118 254 -5 3 -8 10 -6 14 2 7 -2 14 -78 114 -70 94
-147 169 -268 259 -23 17 -114 69 -167 96 -32 16 -58 33 -58 38 0 6 6 22 14
36 31 57 93 234 111 320 29 135 39 220 38 342 0 97 -8 205 -17 250 -3 14 -9
39 -13 55 -4 17 -6 33 -5 37 4 18 -71 226 -113 313 -138 284 -394 505 -700
607 -38 13 -72 26 -73 31 -2 4 -7 5 -12 2 -5 -3 -21 0 -36 5 -14 6 -43 13 -63
16 -20 3 -43 7 -52 10 -9 2 -34 7 -55 10 -22 3 -57 7 -79 11 -101 14 -340 10
-430 -9z"/>
</g>
</svg>
