<?xml version="1.0" encoding="utf-8"?>
<!-- Generator: Adobe Illustrator 19.2.1, SVG Export Plug-In . SVG Version: 6.00 Build 0)  -->
<svg version="1.1" id="Layer_1" xmlns="http://www.w3.org/2000/svg" xmlns:xlink="http://www.w3.org/1999/xlink" x="0px" y="0px"
	 viewBox="0 0 17.2 20.7" style="enable-background:new 0 0 17.2 20.7;" xml:space="preserve">
<style type="text/css">
	.st0{fill:#FFFFFF;}
</style>
<g>
	<path class="st0" d="M12.9,6.1C11.2,6,10.2,6.9,10,7.8c-0.2,0.9,0.5,0.6,0.5,0.6c2.5-1,2.7,1.3,2.7,1.3
		c0.6,5.2-11.9,10.9-11.9,10.9v0.1c3.6-0.3,9.9-2.6,12.9-5c2.7-2.2,3.5-4.6,2.8-6.8C16.4,7,14.8,6.1,12.9,6.1"/>
	<path class="st0" d="M15.1,2.8C14.5,1,13,0.2,11.2,0.1C9.5,0,8.6,0.9,8.4,1.8C8.1,2.6,8.8,2.3,8.8,2.3c2.4-1,2.6,1.3,2.6,1.3
		C12,8.6,0,14.1,0,14.1v0.1c3.5-0.3,9.5-2.5,12.4-4.8C15,7.2,15.8,4.9,15.1,2.8"/>
</g>
</svg>
