<?xml version="1.0" encoding="UTF-8" standalone="no"?>
<!DOCTYPE svg PUBLIC "-//W3C//DTD SVG 1.1//EN" "http://www.w3.org/Graphics/SVG/1.1/DTD/svg11.dtd">
<svg width="100%" height="100%" viewBox="0 0 300 300" version="1.1" xmlns="http://www.w3.org/2000/svg" xmlns:xlink="http://www.w3.org/1999/xlink" xml:space="preserve" xmlns:serif="http://www.serif.com/" style="fill-rule:evenodd;clip-rule:evenodd;stroke-linejoin:round;stroke-miterlimit:2;">
    <path d="M150.263,232.006L123.882,231.96C119.51,231.96 116.309,230.789 114.279,228.447C112.245,226.109 111.231,222.362 111.238,217.208L111.238,208.223L111.201,161.314L146.537,161.314L146.537,138.123L111.201,138.123L111.201,102.749L84.257,102.749L84.294,218.141C84.294,230.952 87.341,240.325 93.435,246.259C99.526,252.193 109.207,255.16 122.477,255.16L135.741,255.252C143.772,255.261 150.389,248.661 150.401,240.63L150.263,232.006Z" style="fill:white;fill-rule:nonzero;"/>
    <path d="M183.682,45.232C163.793,45.232 147.426,61.599 147.426,81.488C147.426,101.378 163.793,117.745 183.682,117.745C203.572,117.745 219.938,101.378 219.938,81.488C219.938,61.599 203.572,45.232 183.682,45.232ZM183.684,101.988C183.683,101.988 183.683,101.988 183.683,101.988C172.437,101.988 163.183,92.734 163.183,81.488C163.183,70.243 172.437,60.989 183.683,60.989C194.929,60.989 204.183,70.243 204.183,81.488C204.183,81.488 204.183,81.488 204.183,81.488C204.182,92.734 194.929,101.987 183.684,101.988L183.684,101.988Z" style="fill:white;fill-rule:nonzero;"/>
</svg>

