<?xml version="1.0" ?><!DOCTYPE svg  PUBLIC '-//W3C//DTD SVG 1.1//EN'  'http://www.w3.org/Graphics/SVG/1.1/DTD/svg11.dtd'><svg style="enable-background:new 0 0 500 500;" version="1.1" viewBox="0 0 500 500" xml:space="preserve" xmlns="http://www.w3.org/2000/svg" xmlns:xlink="http://www.w3.org/1999/xlink"><g id="document"><g><circle cx="250" cy="250" r="250" style="fill:#b4ceeb;"/><g id="_x33_5"><g><g><g><path d="M168.587,373.134c-11.8-0.027-21.343-9.57-21.365-21.365l0,0V148.248        c0.022-11.8,9.565-21.343,21.365-21.371l0,0h136.697v14.247H168.587c-3.869,0.011-7.113,3.25-7.124,7.124l0,0v203.521        c0.011,3.868,3.255,7.118,7.124,7.129l0,0h162.82c3.868-0.011,7.107-3.261,7.118-7.129l0,0V179.112h0.006h14.241v172.656        c-0.021,11.795-9.565,21.338-21.365,21.365l0,0H168.587L168.587,373.134z" style="fill:#1b75d5;"/></g><g><path d="M319.525,186.241c-11.8-0.027-21.343-9.576-21.364-21.381l0,0v-30.854        c0-2.951,1.828-5.615,4.579-6.662l0,0c2.75-1.053,5.886-0.288,7.85,1.91l0,0l40.37,45.107l-5.312,4.752v-7.129v7.129        l5.312-4.752c1.878,2.094,2.344,5.094,1.194,7.655l0,0c-1.15,2.577-3.69,4.227-6.506,4.227l0,0H319.525L319.525,186.241z" style="fill:#1b75d5;"/></g></g></g><g><rect height="72.266" style="fill:#1267c0;" width="68.446" x="181.657" y="177.382"/><g><rect height="5.566" style="fill:#1b75d5;" width="137.576" x="181.212" y="264.621"/><rect height="5.556" style="fill:#1b75d5;" width="137.576" x="181.212" y="285.167"/><rect height="5.561" style="fill:#1b75d5;" width="137.576" x="181.212" y="305.702"/><rect height="5.556" style="fill:#1b75d5;" width="137.576" x="181.212" y="326.242"/><rect height="5.56" style="fill:#1b75d5;" width="55.061" x="263.727" y="203.017"/><rect height="5.561" style="fill:#1b75d5;" width="55.061" x="263.727" y="223.551"/><rect height="5.556" style="fill:#1b75d5;" width="55.061" x="263.727" y="244.092"/></g></g></g></g></g><g id="Layer_1"/></svg>