<?xml version="1.0" encoding="UTF-8" standalone="no"?>
<!DOCTYPE svg PUBLIC "-//W3C//DTD SVG 1.1//EN" "http://www.w3.org/Graphics/SVG/1.1/DTD/svg11.dtd">
<svg width="100%" height="100%" viewBox="0 0 17 16" version="1.1" xmlns="http://www.w3.org/2000/svg" xmlns:xlink="http://www.w3.org/1999/xlink" xml:space="preserve" xmlns:serif="http://www.serif.com/" style="fill-rule:evenodd;clip-rule:evenodd;stroke-linejoin:round;stroke-miterlimit:2;">
    <g transform="matrix(1,0,0,1,-3.64855,-4.034)">
        <path d="M9.362,9.158C9.362,9.158 6.202,9.508 4.094,9.742C3.904,9.765 3.736,9.892 3.673,10.085C3.61,10.278 3.673,10.479 3.813,10.606C5.379,12.035 7.732,14.175 7.732,14.175C7.73,14.175 7.086,17.288 6.658,19.365C6.622,19.553 6.69,19.752 6.854,19.871C7.017,19.99 7.227,19.992 7.392,19.899C9.236,18.851 11.998,17.275 11.998,17.275C11.998,17.275 14.761,18.851 16.602,19.9C16.77,19.992 16.98,19.99 17.143,19.871C17.307,19.752 17.375,19.553 17.338,19.366C16.91,17.288 16.267,14.175 16.267,14.175C16.267,14.175 18.62,12.035 20.186,10.609C20.326,10.478 20.388,10.277 20.326,10.085C20.264,9.893 20.096,9.766 19.906,9.744C17.798,9.508 14.637,9.158 14.637,9.158C14.637,9.158 13.327,6.26 12.454,4.328C12.372,4.155 12.2,4.034 11.998,4.034C11.796,4.034 11.623,4.156 11.545,4.328C10.671,6.26 9.362,9.158 9.362,9.158Z" style="fill:rgb(27,117,213);fill-rule:nonzero;"/>
    </g>
</svg>
